<svg width="77" height="25" viewBox="0 0 77 25" fill="none" xmlns="http://www.w3.org/2000/svg">
<path d="M12 0H1.99842C0.894717 0 0 0.905151 0 2.02171V21.9716C0 23.0881 0.894717 23.9933 1.99842 23.9933H12V0Z" fill="#01316E"/>
<path d="M22.2738 0.00671387L12 0.00672023L12 24H22.2738C23.2272 24 24 23.2266 24 22.2725V1.73421C24 0.780153 23.2272 0.00671387 22.2738 0.00671387Z" fill="white"/>
<path fill-rule="evenodd" clip-rule="evenodd" d="M20.0038 19.9982V4.01892H16.008L15.9299 8.25759C14.6235 9.429 13.8235 10.2977 12.0118 10.6542V13.3257C14.2016 12.6359 14.6473 12.2446 15.9299 11.0825L16.008 19.9982H20.0038Z" fill="#01316E"/>
<path fill-rule="evenodd" clip-rule="evenodd" d="M3.94177 19.9982V4.01892H7.93766L8.01598 8.25759C9.32207 9.429 10.1221 10.2977 11.9338 10.6542V13.3257C9.74401 12.6359 9.29855 12.2446 8.01598 11.0825L7.93766 19.9982H3.94177Z" fill="white"/>
<path d="M26.752 12.144V16.768C26.752 19.056 27.936 20.256 30.272 20.256C32.608 20.256 33.792 19.056 33.792 16.768V12.144H31.552V16.4C31.552 17.296 31.408 18.368 30.272 18.368C29.136 18.368 28.992 17.296 28.992 16.4V12.144H26.752Z" fill="white"/>
<path d="M37.9225 12.144H35.6825V20H37.9225V16.112C37.9225 15.168 37.9385 13.68 39.2665 13.68C40.5305 13.68 40.4825 14.896 40.4825 15.84V20H42.7225V15.2C42.7225 13.376 42.1145 11.888 40.0025 11.888C39.2025 11.888 38.4185 12.16 37.9545 12.864H37.9225V12.144Z" fill="white"/>
<path d="M46.9951 12.144H44.7551V20H46.9951V12.144ZM45.8751 7.52002C45.1391 7.52002 44.5471 8.12802 44.5471 8.84802C44.5471 9.58402 45.1391 10.176 45.8751 10.176C46.6111 10.176 47.2031 9.58402 47.2031 8.84802C47.2031 8.12802 46.6111 7.52002 45.8751 7.52002Z" fill="white"/>
<path d="M54.354 12.384C53.81 12.048 53.154 11.888 52.53 11.888C50.162 11.888 48.45 13.76 48.45 16.096C48.45 18.352 50.098 20.256 52.418 20.256C53.106 20.256 53.746 20.112 54.354 19.776V17.616C53.954 18.064 53.394 18.368 52.786 18.368C51.506 18.368 50.722 17.344 50.722 16.112C50.722 14.96 51.442 13.776 52.706 13.776C53.394 13.776 53.874 14.064 54.354 14.544V12.384Z" fill="white"/>
<path d="M58.4163 12.144H56.1763V20H58.4163V12.144ZM57.2963 7.52002C56.5603 7.52002 55.9683 8.12802 55.9683 8.84802C55.9683 9.58402 56.5603 10.176 57.2963 10.176C58.0323 10.176 58.6243 9.58402 58.6243 8.84802C58.6243 8.12802 58.0323 7.52002 57.2963 7.52002Z" fill="white"/>
<path d="M62.6712 12.144H60.4312V24.192H62.6712V19.264H62.7032C63.1512 19.904 63.9992 20.256 64.7992 20.256C67.1192 20.256 68.4312 18.176 68.4312 16.032C68.4312 13.968 67.0712 11.888 64.8472 11.888C64.0152 11.888 63.1832 12.256 62.6712 12.864V12.144ZM64.3032 18.272C63.1512 18.272 62.4472 17.12 62.4472 16.064C62.4472 15.008 63.1512 13.872 64.3032 13.872C65.4552 13.872 66.1592 15.008 66.1592 16.064C66.1592 17.12 65.4552 18.272 64.3032 18.272Z" fill="white"/>
<path d="M76.7741 16.432V16.16C76.7741 13.792 75.6221 11.888 73.0461 11.888C70.5021 11.888 69.2381 13.76 69.2381 16.144C69.2381 18.528 70.7261 20.256 73.1581 20.256C74.8061 20.256 76.1821 19.376 76.7261 17.808L74.6621 17.472C74.3581 18.096 73.8941 18.544 73.1581 18.544C71.9901 18.544 71.6061 17.424 71.6061 16.432H76.7741ZM71.6701 15.04C71.7821 14.224 72.2781 13.456 73.1741 13.456C74.0381 13.456 74.5501 14.24 74.6621 15.04H71.6701Z" fill="white"/>
</svg>
