<svg width="86" height="24" viewBox="0 0 86 24" fill="none" xmlns="http://www.w3.org/2000/svg">
<path fill-rule="evenodd" clip-rule="evenodd" d="M14 0.00671917L22 0.00671387C23.1046 0.00671387 24 0.902145 24 2.00671V22C24 23.1046 23.1046 24 22 24H14C12.8954 24 12 23.1046 12 22L12 2.00671C12 0.902147 12.8955 0.00671976 14 0.00671917ZM20.0038 4.01892V19.9982H16.008L15.9299 11.0825C14.6473 12.2446 14.2016 12.6359 12.0118 13.3257V10.6542C13.6441 10.333 14.4551 9.59605 15.5552 8.59653C15.6761 8.48666 15.8005 8.37361 15.9299 8.25759L16.008 4.01892H20.0038Z" fill="white"/>
<path fill-rule="evenodd" clip-rule="evenodd" d="M3.94177 19.9982V4.01892H7.93766L8.01598 8.25759C9.32207 9.429 10.1221 10.2977 11.9338 10.6542V13.3257C9.74401 12.6359 9.29855 12.2446 8.01598 11.0825L7.93766 19.9982H3.94177Z" fill="white"/>
<path d="M34.1066 7.21381V20H30.1464L30.2139 18.9401C29.9441 19.3705 29.61 19.6949 29.2118 19.9133C28.8199 20.1253 28.3671 20.2313 27.8532 20.2313C27.2686 20.2313 26.7836 20.1285 26.3982 19.9229C26.0128 19.7174 25.727 19.4444 25.5407 19.1039C25.3608 18.7635 25.2484 18.4102 25.2034 18.044C25.1585 17.6714 25.136 16.9359 25.136 15.8375V7.21381H29.0287V15.9146C29.0287 16.9102 29.0576 17.5012 29.1154 17.6875C29.1796 17.8738 29.3467 17.9669 29.6165 17.9669C29.9055 17.9669 30.0757 17.8706 30.1271 17.6779C30.1849 17.4852 30.2139 16.8653 30.2139 15.8182V7.21381H34.1066Z" fill="white"/>
<path d="M39.4639 7.21381L39.3964 8.38933C39.679 7.9204 40.0227 7.57032 40.4274 7.33907C40.8385 7.10139 41.3106 6.98256 41.8438 6.98256C42.5119 6.98256 43.0579 7.13993 43.4818 7.45469C43.9058 7.76945 44.1788 8.16771 44.3008 8.64948C44.4229 9.12483 44.4839 9.92136 44.4839 11.0391V20H40.5912V11.1451C40.5912 10.265 40.5623 9.72865 40.5045 9.53594C40.4467 9.34323 40.2861 9.24688 40.0227 9.24688C39.7465 9.24688 39.5731 9.35929 39.5024 9.58412C39.4317 9.80252 39.3964 10.3935 39.3964 11.357V20H35.5037V7.21381H39.4639Z" fill="white"/>
<path d="M49.8412 7.21381V20H45.8329V7.21381H49.8412ZM51.1612 3.74506L47.9912 6.35625H46.0352L47.731 3.74506H51.1612Z" fill="white"/>
<path d="M59.8524 12.0412H56.1813V10.5669C56.1813 10.053 56.1395 9.70617 56.056 9.52631C55.9725 9.34002 55.8184 9.24688 55.5935 9.24688C55.3687 9.24688 55.2178 9.32717 55.1407 9.48776C55.0636 9.64835 55.025 10.0081 55.025 10.5669V16.5987C55.025 17.0548 55.0829 17.3984 55.1985 17.6297C55.3141 17.8545 55.4843 17.9669 55.7092 17.9669C55.9725 17.9669 56.1492 17.8481 56.2391 17.6104C56.3355 17.3727 56.3836 16.9231 56.3836 16.2615V14.7391H59.8524C59.846 15.7604 59.8074 16.528 59.7368 17.0419C59.6725 17.5494 59.4573 18.0729 59.0912 18.6125C58.7315 19.1457 58.2593 19.5504 57.6748 19.8266C57.0902 20.0964 56.3676 20.2313 55.5068 20.2313C54.4084 20.2313 53.538 20.045 52.8956 19.6724C52.2533 19.2934 51.7972 18.7667 51.5274 18.0922C51.264 17.4113 51.1323 16.4477 51.1323 15.2016V11.569C51.1323 10.4834 51.2415 9.66441 51.4599 9.11198C51.6783 8.55955 52.1441 8.06815 52.8571 7.63776C53.5701 7.20096 54.4373 6.98256 55.4586 6.98256C56.4736 6.98256 57.3408 7.19775 58.0602 7.62813C58.7796 8.05851 59.2582 8.60131 59.4959 9.25651C59.7336 9.91172 59.8524 10.8399 59.8524 12.0412Z" fill="white"/>
<path d="M65.0266 4.40026V6.43334H61.0183V4.40026H65.0266ZM65.0266 7.21381V20H61.0183V7.21381H65.0266Z" fill="white"/>
<path d="M70.3935 7.21381L70.3261 8.34115C70.673 7.88507 71.0552 7.54462 71.4727 7.3198C71.8902 7.09497 72.3463 6.98256 72.8409 6.98256C73.4448 6.98256 73.9651 7.14636 74.4019 7.47396C74.8451 7.79514 75.1213 8.16771 75.2305 8.59167C75.3397 9.01563 75.3943 9.73507 75.3943 10.75V16.1362C75.3943 17.2989 75.3237 18.1275 75.1823 18.6221C75.0474 19.1103 74.7648 19.5022 74.3344 19.7977C73.9105 20.0867 73.3966 20.2313 72.7928 20.2313C72.311 20.2313 71.8645 20.1188 71.4534 19.894C71.0423 19.6692 70.6665 19.3352 70.3261 18.8919V21.8211H66.4334V7.21381H70.3935ZM71.5016 10.9331C71.5016 10.143 71.4727 9.66441 71.4149 9.4974C71.3571 9.33039 71.1965 9.24688 70.9331 9.24688C70.6762 9.24688 70.5092 9.34323 70.4321 9.53594C70.3614 9.72865 70.3261 10.1944 70.3261 10.9331V16.2326C70.3261 17.0034 70.3646 17.4852 70.4417 17.6779C70.5188 17.8706 70.6858 17.9669 70.9428 17.9669C71.1933 17.9669 71.3474 17.8802 71.4053 17.7068C71.4695 17.5269 71.5016 17.0965 71.5016 16.4156V10.9331Z" fill="white"/>
<path d="M85.5019 13.8333H80.4626V16.5987C80.4626 17.1768 80.5043 17.5494 80.5878 17.7164C80.6713 17.8834 80.8319 17.9669 81.0696 17.9669C81.3651 17.9669 81.561 17.8577 81.6573 17.6393C81.7601 17.4145 81.8115 16.9841 81.8115 16.3482V14.662H85.5019V15.6063C85.5019 16.3964 85.4505 17.0034 85.3477 17.4273C85.2514 17.8513 85.0201 18.3042 84.654 18.7859C84.2878 19.2677 83.8221 19.6306 83.2568 19.8747C82.698 20.1124 81.9946 20.2313 81.1467 20.2313C80.3244 20.2313 79.5986 20.1124 78.9691 19.8747C78.3395 19.6371 77.8481 19.3127 77.4948 18.9016C77.148 18.484 76.9071 18.028 76.7722 17.5333C76.6373 17.0323 76.5698 16.3064 76.5698 15.3557V11.6268C76.5698 10.5091 76.7208 9.62908 77.0227 8.98672C77.3246 8.33794 77.8192 7.84332 78.5066 7.50287C79.1939 7.15599 79.984 6.98256 80.8769 6.98256C81.9689 6.98256 82.8682 7.19132 83.5748 7.60886C84.2878 8.01997 84.7856 8.56919 85.0683 9.25651C85.3573 9.93742 85.5019 10.8977 85.5019 12.1375V13.8333ZM81.5995 11.7521V10.8175C81.5995 10.1558 81.5642 9.72865 81.4935 9.53594C81.4229 9.34323 81.2784 9.24688 81.0599 9.24688C80.7902 9.24688 80.6231 9.33039 80.5589 9.4974C80.4947 9.65799 80.4626 10.098 80.4626 10.8175V11.7521H81.5995Z" fill="white"/>
</svg>
